<svg width="21" height="21" viewBox="0 0 21 21" fill="none" xmlns="http://www.w3.org/2000/svg">
<path d="M15 11C14.2333 10.3 13.4875 9.6125 12.7625 8.9375C12.0375 8.2625 11.3958 7.6 10.8375 6.95C10.2792 6.3 9.83333 5.67083 9.5 5.0625C9.16667 4.45417 9 3.86667 9 3.3C9 2.36667 9.31667 1.58333 9.95 0.95C10.5833 0.316667 11.3667 0 12.3 0C12.8333 0 13.3333 0.1125 13.8 0.3375C14.2667 0.5625 14.6667 0.866667 15 1.25C15.3333 0.866667 15.7333 0.5625 16.2 0.3375C16.6667 0.1125 17.1667 0 17.7 0C18.6333 0 19.4167 0.316667 20.05 0.95C20.6833 1.58333 21 2.36667 21 3.3C21 3.86667 20.8333 4.45417 20.5 5.0625C20.1667 5.67083 19.7208 6.3 19.1625 6.95C18.6042 7.6 17.9667 8.2625 17.25 8.9375C16.5333 9.6125 15.7833 10.3 15 11ZM15 8.3C15.9833 7.36667 16.8958 6.4375 17.7375 5.5125C18.5792 4.5875 19 3.85 19 3.3C19 2.91667 18.8792 2.60417 18.6375 2.3625C18.3958 2.12083 18.0833 2 17.7 2C17.4667 2 17.2458 2.04583 17.0375 2.1375C16.8292 2.22917 16.65 2.36667 16.5 2.55L15 4.35L13.5 2.55C13.35 2.36667 13.1708 2.22917 12.9625 2.1375C12.7542 2.04583 12.5333 2 12.3 2C11.9167 2 11.6042 2.12083 11.3625 2.3625C11.1208 2.60417 11 2.91667 11 3.3C11 3.85 11.4208 4.5875 12.2625 5.5125C13.1042 6.4375 14.0167 7.36667 15 8.3ZM13 20.5L6 18.55V20H0V9H7.95L14.15 11.3C14.7 11.5 15.1458 11.85 15.4875 12.35C15.8292 12.85 16 13.4 16 14H18C18.8333 14 19.5417 14.275 20.125 14.825C20.7083 15.375 21 16.1 21 17V18L13 20.5ZM2 18H4V11H2V18ZM12.95 18.4L18.9 16.55C18.85 16.3667 18.7375 16.2292 18.5625 16.1375C18.3875 16.0458 18.2 16 18 16H13.2C12.6833 16 12.2167 15.9667 11.8 15.9C11.3833 15.8333 10.9333 15.7167 10.45 15.55L8.725 14.95L9.3 13.05L11.3 13.7C11.6 13.8 11.95 13.875 12.35 13.925C12.75 13.975 13.3 14 14 14C14 13.8167 13.9458 13.6417 13.8375 13.475C13.7292 13.3083 13.6 13.2 13.45 13.15L7.6 11H6V16.5L12.95 18.4Z" fill="#FD7D61"/>
</svg>
