<svg width="24" height="25" viewBox="0 0 24 25" fill="none" xmlns="http://www.w3.org/2000/svg">
<path opacity="0.4" d="M18.6683 6.93381C18.5842 6.92179 18.5 6.92179 18.4159 6.93381C16.5533 6.87372 15.0752 5.34756 15.0752 3.47291C15.0752 1.56221 16.6254 0 18.5481 0C20.4588 0 22.021 1.55019 22.021 3.47291C22.009 5.34756 20.5309 6.87372 18.6683 6.93381Z" fill="#FD7D61"/>
<path opacity="0.4" d="M22.5865 15.2615C21.2406 16.1627 19.3539 16.4992 17.6115 16.2709C18.0681 15.2855 18.3085 14.192 18.3205 13.0383C18.3205 11.8366 18.0561 10.695 17.5514 9.6976C19.3299 9.45729 21.2166 9.79374 22.5745 10.695C24.4732 11.9448 24.4732 13.9997 22.5865 15.2615Z" fill="#FD7D61"/>
<path opacity="0.4" d="M5.3431 6.93381C5.42722 6.92179 5.51134 6.92179 5.59546 6.93381C7.45809 6.87372 8.93618 5.34756 8.93618 3.47291C8.93618 1.56221 7.38599 0 5.46327 0C3.55257 0 1.99036 1.55019 1.99036 3.47291C2.00237 5.34756 3.48046 6.87372 5.3431 6.93381Z" fill="#FD7D61"/>
<path opacity="0.4" d="M5.47374 13.0386C5.47374 14.2042 5.7261 15.3098 6.18274 16.3072C4.48835 16.4874 2.72185 16.1269 1.42401 15.2737C-0.474671 14.0119 -0.474671 11.957 1.42401 10.6953C2.70983 9.83003 4.5244 9.48153 6.23081 9.67381C5.73811 10.6832 5.47374 11.8248 5.47374 13.0386Z" fill="#FD7D61"/>
<path d="M8.26363 19.155C6.44907 20.3687 6.44907 22.3635 8.26363 23.5652C10.3306 24.9472 13.7194 24.9472 15.7863 23.5652C17.6009 22.3515 17.6009 20.3567 15.7863 19.155C13.7314 17.773 10.3426 17.773 8.26363 19.155Z" fill="#FD7D61"/>
</svg>
