<svg width="34" height="34" viewBox="0 0 34 34" fill="none" xmlns="http://www.w3.org/2000/svg">
<path d="M15.3611 25H18.1389V18.1667H25V15.3889H18.1389V8.33333H15.3611V15.3889H8.33333V18.1667H15.3611V25ZM16.674 33.3333C14.3734 33.3333 12.2114 32.8958 10.188 32.0208C8.16451 31.1458 6.39815 29.9537 4.88888 28.4445C3.37963 26.9352 2.1875 25.1681 1.3125 23.1433C0.4375 21.1185 0 18.955 0 16.6528C0 14.3506 0.4375 12.1871 1.3125 10.1623C2.1875 8.13742 3.37963 6.375 4.88888 4.875C6.39815 3.375 8.1652 2.1875 10.19 1.3125C12.2148 0.4375 14.3783 0 16.6805 0C18.9828 0 21.1463 0.4375 23.1711 1.3125C25.1959 2.1875 26.9583 3.375 28.4583 4.875C29.9583 6.375 31.1458 8.13889 32.0208 10.1667C32.8958 12.1944 33.3333 14.3587 33.3333 16.6593C33.3333 18.9599 32.8958 21.1219 32.0208 23.1454C31.1458 25.1688 29.9583 26.9335 28.4583 28.4393C26.9583 29.9452 25.1944 31.1373 23.1667 32.0157C21.1389 32.8941 18.9747 33.3333 16.674 33.3333Z" fill="white"/>
</svg>
