<svg width="14" height="16" viewBox="0 0 14 16" fill="none" xmlns="http://www.w3.org/2000/svg">
<path d="M1.33975 15.2628C0.964639 15.2628 0.647569 15.1308 0.388542 14.8669C0.129514 14.603 0 14.2884 0 13.923V3.4359C0 3.07051 0.129514 2.75587 0.388542 2.49198C0.647569 2.22809 0.964639 2.09615 1.33975 2.09615H3.16027V0H4.27562V2.09615H8.92304V0H10.0064V2.09615H11.8269C12.202 2.09615 12.5191 2.22809 12.7781 2.49198C13.0371 2.75587 13.1666 3.07051 13.1666 3.4359V13.923C13.1666 14.2884 13.0371 14.603 12.7781 14.8669C12.5191 15.1308 12.202 15.2628 11.8269 15.2628H1.33975ZM1.33975 14.1795H11.8269C11.891 14.1795 11.9498 14.1528 12.0032 14.0993C12.0566 14.0459 12.0833 13.9871 12.0833 13.923V6.9359H1.08331V13.923C1.08331 13.9871 1.11002 14.0459 1.16344 14.0993C1.21687 14.1528 1.27564 14.1795 1.33975 14.1795Z" fill="#FD7D61"/>
</svg>
