<svg width="20" height="22" viewBox="0 0 20 22" fill="none" xmlns="http://www.w3.org/2000/svg">
<path d="M3.37435 18.5578C2.74871 18.5578 2.16409 18.3423 1.74358 17.9423C1.21025 17.4397 0.953837 16.6807 1.04614 15.8602L1.42563 12.5372C1.49743 11.9115 1.87691 11.0807 2.31794 10.6295L10.7385 1.7167C12.841 -0.508944 15.0359 -0.570483 17.2615 1.53208C19.4872 3.63465 19.5487 5.82952 17.4462 8.05516L9.02564 16.9679C8.59487 17.4295 7.79486 17.8602 7.16922 17.9629L3.86666 18.5269C3.6923 18.5372 3.53845 18.5578 3.37435 18.5578ZM14.0308 1.52183C13.241 1.52183 12.5538 2.01413 11.8564 2.7526L3.43589 11.6757C3.23076 11.8911 2.99486 12.4039 2.95384 12.7014L2.57435 16.0243C2.53332 16.3628 2.61538 16.6397 2.79999 16.8141C2.98461 16.9884 3.26153 17.05 3.59999 16.9987L6.90256 16.4347C7.19999 16.3834 7.6923 16.1166 7.89743 15.9013L16.318 6.98849C17.5897 5.63465 18.0513 4.38336 16.1949 2.63977C15.3744 1.85003 14.6667 1.52183 14.0308 1.52183Z" fill="#292D32"/>
<path d="M15.4774 9.76772C15.4569 9.76772 15.4261 9.76772 15.4056 9.76772C12.2056 9.44977 9.63122 7.01906 9.13891 3.83957C9.07738 3.41906 9.36455 3.02931 9.78507 2.95752C10.2056 2.89598 10.5953 3.18316 10.6671 3.60367C11.0569 6.08572 13.0671 7.99341 15.5697 8.23957C15.9902 8.28059 16.2979 8.66008 16.2569 9.08054C16.2056 9.47029 15.8671 9.76772 15.4774 9.76772Z" fill="#292D32"/>
<path d="M19.2308 21.8705H0.769231C0.348718 21.8705 0 21.5218 0 21.1013C0 20.6807 0.348718 20.332 0.769231 20.332H19.2308C19.6513 20.332 20 20.6807 20 21.1013C20 21.5218 19.6513 21.8705 19.2308 21.8705Z" fill="#292D32"/>
</svg>
