<svg width="14" height="17" viewBox="0 0 14 17" fill="none" xmlns="http://www.w3.org/2000/svg">
<path d="M6.66925 8.375C7.13975 8.375 7.54167 8.20747 7.875 7.87242C8.20833 7.53736 8.375 7.13458 8.375 6.66408C8.375 6.19358 8.20747 5.79167 7.87242 5.45833C7.53736 5.125 7.13458 4.95833 6.66408 4.95833C6.19358 4.95833 5.79167 5.12586 5.45833 5.46092C5.125 5.79597 4.95833 6.19875 4.95833 6.66925C4.95833 7.13975 5.12586 7.54167 5.46092 7.875C5.79597 8.20833 6.19875 8.375 6.66925 8.375ZM6.66667 16.6667C4.43056 14.7361 2.76042 12.9653 1.65625 11.3542C0.552083 9.74306 0 8.2375 0 6.8375C0 4.7375 0.666667 3.07292 2 1.84375C3.33333 0.614583 4.88889 0 6.66667 0C8.44444 0 10 0.614583 11.3333 1.84375C12.6667 3.07292 13.3333 4.7375 13.3333 6.8375C13.3333 8.2375 12.7813 9.74306 11.6771 11.3542C10.5729 12.9653 8.90278 14.7361 6.66667 16.6667Z" fill="#FD7D61"/>
</svg>
