<svg width="22" height="20" viewBox="0 0 22 20" fill="none" xmlns="http://www.w3.org/2000/svg">
<path d="M4.42386 15.1C5.29725 14.45 6.2734 13.9375 7.3523 13.5625C8.4312 13.1875 9.56147 13 10.7431 13C11.9248 13 13.0551 13.1875 14.134 13.5625C15.2128 13.9375 16.189 14.45 17.0624 15.1C17.6618 14.4167 18.1284 13.6417 18.4624 12.775C18.7963 11.9083 18.9633 10.9833 18.9633 10C18.9633 7.78333 18.1627 5.89583 16.5615 4.3375C14.9603 2.77917 13.0208 2 10.7431 2C8.46545 2 6.526 2.77917 4.92478 4.3375C3.32355 5.89583 2.52294 7.78333 2.52294 10C2.52294 10.9833 2.68991 11.9083 3.02386 12.775C3.3578 13.6417 3.82447 14.4167 4.42386 15.1ZM10.7431 11C9.73273 11 8.88074 10.6625 8.18716 9.9875C7.49358 9.3125 7.14679 8.48333 7.14679 7.5C7.14679 6.51667 7.49358 5.6875 8.18716 5.0125C8.88074 4.3375 9.73273 4 10.7431 4C11.7535 4 12.6055 4.3375 13.2991 5.0125C13.9927 5.6875 14.3395 6.51667 14.3395 7.5C14.3395 8.48333 13.9927 9.3125 13.2991 9.9875C12.6055 10.6625 11.7535 11 10.7431 11ZM10.7431 20C9.32172 20 7.98594 19.7375 6.73579 19.2125C5.48563 18.6875 4.39817 17.975 3.4734 17.075C2.54863 16.175 1.81652 15.1167 1.27707 13.9C0.73762 12.6833 0.467896 11.3833 0.467896 10C0.467896 8.61667 0.73762 7.31667 1.27707 6.1C1.81652 4.88333 2.54863 3.825 3.4734 2.925C4.39817 2.025 5.48563 1.3125 6.73579 0.7875C7.98594 0.2625 9.32172 0 10.7431 0C12.1645 0 13.5003 0.2625 14.7505 0.7875C16.0006 1.3125 17.0881 2.025 18.0128 2.925C18.9376 3.825 19.6697 4.88333 20.2092 6.1C20.7486 7.31667 21.0184 8.61667 21.0184 10C21.0184 11.3833 20.7486 12.6833 20.2092 13.9C19.6697 15.1167 18.9376 16.175 18.0128 17.075C17.0881 17.975 16.0006 18.6875 14.7505 19.2125C13.5003 19.7375 12.1645 20 10.7431 20ZM10.7431 18C11.6508 18 12.507 17.8708 13.3119 17.6125C14.1168 17.3542 14.8532 16.9833 15.5211 16.5C14.8532 16.0167 14.1168 15.6458 13.3119 15.3875C12.507 15.1292 11.6508 15 10.7431 15C9.83548 15 8.97921 15.1292 8.17432 15.3875C7.36942 15.6458 6.63303 16.0167 5.96514 16.5C6.63303 16.9833 7.36942 17.3542 8.17432 17.6125C8.97921 17.8708 9.83548 18 10.7431 18ZM10.7431 9C11.1884 9 11.5566 8.85833 11.8477 8.575C12.1388 8.29167 12.2844 7.93333 12.2844 7.5C12.2844 7.06667 12.1388 6.70833 11.8477 6.425C11.5566 6.14167 11.1884 6 10.7431 6C10.2979 6 9.92967 6.14167 9.63854 6.425C9.34741 6.70833 9.20184 7.06667 9.20184 7.5C9.20184 7.93333 9.34741 8.29167 9.63854 8.575C9.92967 8.85833 10.2979 9 10.7431 9Z" fill="#FD7D61"/>
</svg>
